<svg xmlns="http://www.w3.org/2000/svg" xmlns:xlink="http://www.w3.org/1999/xlink" id="Layer_1" x="0" y="0" version="1.1" viewBox="0 0 64 64" xml:space="preserve" style="enable-background:new 0 0 64 64"><style type="text/css">.st0,.st1{fill:none;stroke:#0079a5;stroke-width:3.9768;stroke-miterlimit:10}.st1{stroke-linejoin:round}</style><path d="M54.4,23.6C58.9,26,62,30.7,62,36.2V50H46.3" class="st0"/><path d="M17.7,50H2V36.2c0-5.3,3-10,7.3-12.4" class="st0"/><path d="M56.6,11.3c0.8,1.4,1.2,3,1.2,4.7c0,5.5-4.5,9.9-9.9,9.9c-2.6,0-4.9-1-6.7-2.6" class="st0"/><path d="M38,16c0-1.8,0.5-3.6,1.4-5" class="st0"/><path d="M24.7,11c0.8,1.4,1.3,2.9,1.3,4.6" class="st0"/><path d="M22.6,23.6c-1.7,1.5-4,2.4-6.5,2.4c-5.5,0-9.9-4.5-9.9-9.9c0-1.7,0.4-3.3,1.2-4.7" class="st0"/><path d="M38.7,35.7c4.4,2.4,7.4,7,7.4,12.4V62H17.9V48.1c0-5.3,2.9-9.9,7.2-12.3" class="st0"/><path d="M40.2,22.4c1.1,1.6,1.7,3.5,1.7,5.6c0,5.5-4.5,9.9-9.9,9.9s-9.9-4.5-9.9-9.9c0-1.8,0.5-3.5,1.3-4.9" class="st0"/><path d="M56.5,12.1c0.2-3,0.8-4.2,3.3-6L47.9,2.1L36,6c2.4,1.7,3,3,3.2,6H56.5z" class="st1"/><path d="M24.6,12.1c0.2-3,0.8-4.2,3.3-6L16,2.1L4.1,6c2.4,1.7,3,3,3.2,6H24.6z" class="st1"/><path d="M40.6,24c0.2-3,0.8-4.2,3.3-6L32,14L20.1,18c2.4,1.7,3,3,3.2,6H40.6z" class="st1"/></svg>