<svg xmlns="http://www.w3.org/2000/svg" xmlns:xlink="http://www.w3.org/1999/xlink" width="22" height="24" version="1.1" viewBox="0 0 22 24"><title>icon-es</title><desc>Created with Sketch.</desc><g id="UI-KIT" fill="none" fill-rule="evenodd" stroke="none" stroke-width="1"><g id="QuickSummary" fill="#5A5A5A" transform="translate(-161.000000, -3553.000000)"><g id="Basic-Panel" transform="translate(150.000000, 3540.000000)"><g id="Header-bar"><g id="icon-es" transform="translate(11.000000, 13.000000)"><path id="Fill-1" d="M0,12 C0,13.1705143 0.170742857,14.3005714 0.483085714,15.3699429 L10.5353143,15.3699429 C10.8078857,14.2916571 10.9536,13.1629714 10.9536,12 C10.9536,10.8370286 10.8078857,9.70834286 10.5353143,8.63005714 L0.483085714,8.63005714 C0.170742857,9.69977143 0,10.8294857 0,12"/><path id="Fill-3" d="M0,12 C0,13.1705143 0.170742857,14.3005714 0.483085714,15.3699429 L10.5353143,15.3699429 C10.8078857,14.2916571 10.9539429,13.1629714 10.9539429,12 C10.9539429,10.8370286 10.8078857,9.70834286 10.5353143,8.63005714 L0.483085714,8.63005714 C0.170742857,9.69977143 0,10.8294857 0,12"/><path id="Fill-5" d="M15.7793486,8.63016 L11.5892914,8.63016 C11.8436914,9.71324571 11.9825486,10.84056 11.9825486,12.0001029 C11.9825486,13.1596457 11.8436914,14.2866171 11.5892914,15.3700457 L15.7793486,15.3700457 C17.63832,15.3700457 19.1458629,13.8649029 19.1492914,12.0059314 L19.1492914,12.0059314 C19.1523771,10.1425029 17.6427771,8.63016 15.7793486,8.63016"/><path id="Fill-7" d="M1.21289143,17.2602857 C2.28226286,19.4487429 3.99997714,21.2597143 6.11300571,22.4528571 C7.75597714,21.0564 9.06637714,19.2814286 9.90672,17.2602857 L1.21289143,17.2602857 Z"/><path id="Fill-9" d="M17.4554057,17.2602857 L11.0086629,17.2602857 C10.1666057,19.4573143 8.81506286,21.4040571 7.09632,22.9524 C8.59357714,23.6240571 10.2526629,24.0001714 11.9998629,24.0001714 C15.9327771,24.0001714 19.4237486,22.1079429 21.6122057,19.1847429 C20.6103771,18.0084 19.1213486,17.2602857 17.4554057,17.2602857"/><path id="Fill-12" d="M1.21289143,6.73974857 L9.90672,6.73974857 C9.06637714,4.71860571 7.75597714,2.94363429 6.11300571,1.54717714 C3.99997714,2.74032 2.28226286,4.55129143 1.21289143,6.73974857"/><path id="Fill-14" d="M12,0 C10.2524571,0 8.59371429,0.376114286 7.09645714,1.04777143 C8.8152,2.59611429 10.1664,4.54251429 11.0088,6.73988571 L17.3907429,6.73988571 C19.0752,6.73988571 20.5806857,5.97634286 21.5828571,4.77805714 C19.3926857,1.87645714 15.9157714,0 12,0"/></g></g></g></g></g></svg>