<svg xmlns="http://www.w3.org/2000/svg" width="346.667" height="346.667" preserveAspectRatio="xMidYMid meet" version="1.0" viewBox="0 0 260 260"><metadata>Created by potrace 1.11, written by Peter Selinger 2001-2013</metadata><g fill="#000" stroke="none"><path d="M330 1300 l0 -1300 975 0 975 0 0 33 c0 117 -43 334 -91 457 -137 357 -434 679 -814 880 -44 24 -81 44 -82 44 -1 1 8 13 20 26 12 14 54 63 92 110 38 47 74 90 80 96 5 6 26 30 45 54 19 24 51 62 70 85 19 22 53 63 75 89 22 27 45 54 50 60 6 6 64 76 130 156 66 80 124 150 130 156 5 6 26 30 45 54 19 24 40 48 45 54 6 6 42 49 80 96 38 47 80 96 92 110 13 14 23 28 23 32 0 5 -436 8 -970 8 l-970 0 0 -1300z" transform="translate(0.000000,260.000000) scale(0.100000,-0.100000)"/></g></svg>